0
SECTION
2
HEADER
9
$INSUNITS
70
4
0
ENDSEC
0
SECTION
2
TABLES
0
TABLE
2
LTYPE
0
LTYPE
72
65
70
0
2
CONTINUOUS
3
______
73
0
40
0
0
LTYPE
72
65
70
0
2
DASHED
3
_ _ _ 
73
2
40
7.5
49
5
49
-2.5
0
LTYPE
72
65
70
0
2
DOTTED
3
. . . 
73
2
40
1.5
49
0.5
49
-1
0
ENDTAB
0
TABLE
2
LAYER
0
ENDTAB
0
ENDSEC
0
SECTION
2
ENTITIES
0
LINE
8
0
6
CONTINUOUS
10
2.525
20
-16.525
11
16.525
21
-16.525
0
LINE
8
0
6
CONTINUOUS
10
16.525
20
-2.525
11
2.525
21
-2.525
0
LINE
8
0
6
CONTINUOUS
10
16.525
20
-16.525
11
16.525
21
-2.525
0
LINE
8
0
6
CONTINUOUS
10
2.525
20
-2.525
11
2.525
21
-16.525
0
LINE
8
0
6
CONTINUOUS
10
21.575
20
-16.525
11
35.575
21
-16.525
0
LINE
8
0
6
CONTINUOUS
10
35.575
20
-2.525
11
21.575
21
-2.525
0
LINE
8
0
6
CONTINUOUS
10
35.575
20
-16.525
11
35.575
21
-2.525
0
LINE
8
0
6
CONTINUOUS
10
21.575
20
-2.525
11
21.575
21
-16.525
0
LINE
8
0
6
CONTINUOUS
10
40.625
20
-16.525
11
54.625
21
-16.525
0
LINE
8
0
6
CONTINUOUS
10
54.625
20
-2.525
11
40.625
21
-2.525
0
LINE
8
0
6
CONTINUOUS
10
54.625
20
-16.525
11
54.625
21
-2.525
0
LINE
8
0
6
CONTINUOUS
10
40.625
20
-2.525
11
40.625
21
-16.525
0
LINE
8
0
6
CONTINUOUS
10
59.675
20
-16.525
11
73.675
21
-16.525
0
LINE
8
0
6
CONTINUOUS
10
73.675
20
-2.525
11
59.675
21
-2.525
0
LINE
8
0
6
CONTINUOUS
10
73.675
20
-16.525
11
73.675
21
-2.525
0
LINE
8
0
6
CONTINUOUS
10
59.675
20
-2.525
11
59.675
21
-16.525
0
LINE
8
0
6
CONTINUOUS
10
78.725
20
-16.525
11
92.725
21
-16.525
0
LINE
8
0
6
CONTINUOUS
10
92.725
20
-2.525
11
78.725
21
-2.525
0
LINE
8
0
6
CONTINUOUS
10
92.725
20
-16.525
11
92.725
21
-2.525
0
LINE
8
0
6
CONTINUOUS
10
78.725
20
-2.525
11
78.725
21
-16.525
0
LINE
8
0
6
CONTINUOUS
10
97.775
20
-16.525
11
111.775
21
-16.525
0
LINE
8
0
6
CONTINUOUS
10
111.775
20
-2.525
11
97.775
21
-2.525
0
LINE
8
0
6
CONTINUOUS
10
111.775
20
-16.525
11
111.775
21
-2.525
0
LINE
8
0
6
CONTINUOUS
10
97.775
20
-2.525
11
97.775
21
-16.525
0
LINE
8
0
6
CONTINUOUS
10
116.825
20
-16.525
11
130.825
21
-16.525
0
LINE
8
0
6
CONTINUOUS
10
130.825
20
-2.525
11
116.825
21
-2.525
0
LINE
8
0
6
CONTINUOUS
10
130.825
20
-16.525
11
130.825
21
-2.525
0
LINE
8
0
6
CONTINUOUS
10
116.825
20
-2.525
11
116.825
21
-16.525
0
LINE
8
0
6
CONTINUOUS
10
135.875
20
-16.525
11
149.875
21
-16.525
0
LINE
8
0
6
CONTINUOUS
10
149.875
20
-2.525
11
135.875
21
-2.525
0
LINE
8
0
6
CONTINUOUS
10
149.875
20
-16.525
11
149.875
21
-2.525
0
LINE
8
0
6
CONTINUOUS
10
135.875
20
-2.525
11
135.875
21
-16.525
0
LINE
8
0
6
CONTINUOUS
10
154.925
20
-16.525
11
168.925
21
-16.525
0
LINE
8
0
6
CONTINUOUS
10
168.925
20
-2.525
11
154.925
21
-2.525
0
LINE
8
0
6
CONTINUOUS
10
168.925
20
-16.525
11
168.925
21
-2.525
0
LINE
8
0
6
CONTINUOUS
10
154.925
20
-2.525
11
154.925
21
-16.525
0
LINE
8
0
6
CONTINUOUS
10
173.975
20
-16.525
11
187.975
21
-16.525
0
LINE
8
0
6
CONTINUOUS
10
187.975
20
-2.525
11
173.975
21
-2.525
0
LINE
8
0
6
CONTINUOUS
10
187.975
20
-16.525
11
187.975
21
-2.525
0
LINE
8
0
6
CONTINUOUS
10
173.975
20
-2.525
11
173.975
21
-16.525
0
LINE
8
0
6
CONTINUOUS
10
2.525
20
-35.575
11
16.525
21
-35.575
0
LINE
8
0
6
CONTINUOUS
10
16.525
20
-21.575
11
2.525
21
-21.575
0
LINE
8
0
6
CONTINUOUS
10
16.525
20
-35.575
11
16.525
21
-21.575
0
LINE
8
0
6
CONTINUOUS
10
2.525
20
-21.575
11
2.525
21
-35.575
0
LINE
8
0
6
CONTINUOUS
10
21.575
20
-35.575
11
35.575
21
-35.575
0
LINE
8
0
6
CONTINUOUS
10
35.575
20
-21.575
11
21.575
21
-21.575
0
LINE
8
0
6
CONTINUOUS
10
35.575
20
-35.575
11
35.575
21
-21.575
0
LINE
8
0
6
CONTINUOUS
10
21.575
20
-21.575
11
21.575
21
-35.575
0
LINE
8
0
6
CONTINUOUS
10
40.625
20
-35.575
11
54.625
21
-35.575
0
LINE
8
0
6
CONTINUOUS
10
54.625
20
-21.575
11
40.625
21
-21.575
0
LINE
8
0
6
CONTINUOUS
10
54.625
20
-35.575
11
54.625
21
-21.575
0
LINE
8
0
6
CONTINUOUS
10
40.625
20
-21.575
11
40.625
21
-35.575
0
LINE
8
0
6
CONTINUOUS
10
59.675
20
-35.575
11
73.675
21
-35.575
0
LINE
8
0
6
CONTINUOUS
10
73.675
20
-21.575
11
59.675
21
-21.575
0
LINE
8
0
6
CONTINUOUS
10
73.675
20
-35.575
11
73.675
21
-21.575
0
LINE
8
0
6
CONTINUOUS
10
59.675
20
-21.575
11
59.675
21
-35.575
0
LINE
8
0
6
CONTINUOUS
10
78.725
20
-35.575
11
92.725
21
-35.575
0
LINE
8
0
6
CONTINUOUS
10
92.725
20
-21.575
11
78.725
21
-21.575
0
LINE
8
0
6
CONTINUOUS
10
92.725
20
-35.575
11
92.725
21
-21.575
0
LINE
8
0
6
CONTINUOUS
10
78.725
20
-21.575
11
78.725
21
-35.575
0
LINE
8
0
6
CONTINUOUS
10
97.775
20
-35.575
11
111.775
21
-35.575
0
LINE
8
0
6
CONTINUOUS
10
111.775
20
-21.575
11
97.775
21
-21.575
0
LINE
8
0
6
CONTINUOUS
10
111.775
20
-35.575
11
111.775
21
-21.575
0
LINE
8
0
6
CONTINUOUS
10
97.775
20
-21.575
11
97.775
21
-35.575
0
LINE
8
0
6
CONTINUOUS
10
116.825
20
-35.575
11
130.825
21
-35.575
0
LINE
8
0
6
CONTINUOUS
10
130.825
20
-21.575
11
116.825
21
-21.575
0
LINE
8
0
6
CONTINUOUS
10
130.825
20
-35.575
11
130.825
21
-21.575
0
LINE
8
0
6
CONTINUOUS
10
116.825
20
-21.575
11
116.825
21
-35.575
0
LINE
8
0
6
CONTINUOUS
10
135.875
20
-35.575
11
149.875
21
-35.575
0
LINE
8
0
6
CONTINUOUS
10
149.875
20
-21.575
11
135.875
21
-21.575
0
LINE
8
0
6
CONTINUOUS
10
149.875
20
-35.575
11
149.875
21
-21.575
0
LINE
8
0
6
CONTINUOUS
10
135.875
20
-21.575
11
135.875
21
-35.575
0
LINE
8
0
6
CONTINUOUS
10
154.925
20
-35.575
11
168.925
21
-35.575
0
LINE
8
0
6
CONTINUOUS
10
168.925
20
-21.575
11
154.925
21
-21.575
0
LINE
8
0
6
CONTINUOUS
10
168.925
20
-35.575
11
168.925
21
-21.575
0
LINE
8
0
6
CONTINUOUS
10
154.925
20
-21.575
11
154.925
21
-35.575
0
LINE
8
0
6
CONTINUOUS
10
173.975
20
-35.575
11
187.975
21
-35.575
0
LINE
8
0
6
CONTINUOUS
10
187.975
20
-21.575
11
173.975
21
-21.575
0
LINE
8
0
6
CONTINUOUS
10
187.975
20
-35.575
11
187.975
21
-21.575
0
LINE
8
0
6
CONTINUOUS
10
173.975
20
-21.575
11
173.975
21
-35.575
0
LINE
8
0
6
CONTINUOUS
10
7.2875
20
-54.625
11
21.2875
21
-54.625
0
LINE
8
0
6
CONTINUOUS
10
21.2875
20
-40.625
11
7.2875
21
-40.625
0
LINE
8
0
6
CONTINUOUS
10
21.2875
20
-54.625
11
21.2875
21
-40.625
0
LINE
8
0
6
CONTINUOUS
10
7.2875
20
-40.625
11
7.2875
21
-54.625
0
LINE
8
0
6
CONTINUOUS
10
31.1
20
-54.625
11
45.1
21
-54.625
0
LINE
8
0
6
CONTINUOUS
10
45.1
20
-40.625
11
31.1
21
-40.625
0
LINE
8
0
6
CONTINUOUS
10
45.1
20
-54.625
11
45.1
21
-40.625
0
LINE
8
0
6
CONTINUOUS
10
31.1
20
-40.625
11
31.1
21
-54.625
0
LINE
8
0
6
CONTINUOUS
10
50.15
20
-54.625
11
64.15
21
-54.625
0
LINE
8
0
6
CONTINUOUS
10
64.15
20
-40.625
11
50.15
21
-40.625
0
LINE
8
0
6
CONTINUOUS
10
64.15
20
-54.625
11
64.15
21
-40.625
0
LINE
8
0
6
CONTINUOUS
10
50.15
20
-40.625
11
50.15
21
-54.625
0
LINE
8
0
6
CONTINUOUS
10
69.2
20
-54.625
11
83.2
21
-54.625
0
LINE
8
0
6
CONTINUOUS
10
83.2
20
-40.625
11
69.2
21
-40.625
0
LINE
8
0
6
CONTINUOUS
10
83.2
20
-54.625
11
83.2
21
-40.625
0
LINE
8
0
6
CONTINUOUS
10
69.2
20
-40.625
11
69.2
21
-54.625
0
LINE
8
0
6
CONTINUOUS
10
88.25
20
-54.625
11
102.25
21
-54.625
0
LINE
8
0
6
CONTINUOUS
10
102.25
20
-40.625
11
88.25
21
-40.625
0
LINE
8
0
6
CONTINUOUS
10
102.25
20
-54.625
11
102.25
21
-40.625
0
LINE
8
0
6
CONTINUOUS
10
88.25
20
-40.625
11
88.25
21
-54.625
0
LINE
8
0
6
CONTINUOUS
10
107.3
20
-54.625
11
121.3
21
-54.625
0
LINE
8
0
6
CONTINUOUS
10
121.3
20
-40.625
11
107.3
21
-40.625
0
LINE
8
0
6
CONTINUOUS
10
121.3
20
-54.625
11
121.3
21
-40.625
0
LINE
8
0
6
CONTINUOUS
10
107.3
20
-40.625
11
107.3
21
-54.625
0
LINE
8
0
6
CONTINUOUS
10
126.35
20
-54.625
11
140.35
21
-54.625
0
LINE
8
0
6
CONTINUOUS
10
140.35
20
-40.625
11
126.35
21
-40.625
0
LINE
8
0
6
CONTINUOUS
10
140.35
20
-54.625
11
140.35
21
-40.625
0
LINE
8
0
6
CONTINUOUS
10
126.35
20
-40.625
11
126.35
21
-54.625
0
LINE
8
0
6
CONTINUOUS
10
145.4
20
-54.625
11
159.4
21
-54.625
0
LINE
8
0
6
CONTINUOUS
10
159.4
20
-40.625
11
145.4
21
-40.625
0
LINE
8
0
6
CONTINUOUS
10
159.4
20
-54.625
11
159.4
21
-40.625
0
LINE
8
0
6
CONTINUOUS
10
145.4
20
-40.625
11
145.4
21
-54.625
0
LINE
8
0
6
CONTINUOUS
10
169.2125
20
-54.625
11
183.2125
21
-54.625
0
LINE
8
0
6
CONTINUOUS
10
183.2125
20
-40.625
11
169.2125
21
-40.625
0
LINE
8
0
6
CONTINUOUS
10
183.2125
20
-54.625
11
183.2125
21
-40.625
0
LINE
8
0
6
CONTINUOUS
10
169.2125
20
-40.625
11
169.2125
21
-54.625
0
LINE
8
0
6
CONTINUOUS
10
7.2875
20
-73.675
11
16.525
21
-73.675
0
LINE
8
0
6
CONTINUOUS
10
16.525
20
-73.675
11
21.2875
21
-73.675
0
LINE
8
0
6
CONTINUOUS
10
21.2875
20
-59.675
11
16.525
21
-59.675
0
LINE
8
0
6
CONTINUOUS
10
16.525
20
-59.675
11
7.2875
21
-59.675
0
LINE
8
0
6
CONTINUOUS
10
21.2875
20
-73.675
11
21.2875
21
-59.675
0
LINE
8
0
6
CONTINUOUS
10
2.525
20
-73.675
11
7.2875
21
-73.675
0
LINE
8
0
6
CONTINUOUS
10
7.2875
20
-59.675
11
2.525
21
-59.675
0
LINE
8
0
6
CONTINUOUS
10
2.525
20
-59.675
11
2.525
21
-73.675
0
LINE
8
0
6
CONTINUOUS
10
88.25
20
-73.675
11
89.225
21
-73.675
0
LINE
8
0
6
CONTINUOUS
10
89.225
20
-73.675
11
89.25675
21
-73.675
0
LINE
8
0
6
CONTINUOUS
10
89.25675
20
-73.675
11
101.24325
21
-73.675
0
LINE
8
0
6
CONTINUOUS
10
101.24325
20
-73.675
11
101.275
21
-73.675
0
LINE
8
0
6
CONTINUOUS
10
101.275
20
-73.675
11
102.25
21
-73.675
0
LINE
8
0
6
CONTINUOUS
10
101.24325
20
-59.675
11
89.25675
21
-59.675
0
LINE
8
0
6
CONTINUOUS
10
165.425
20
-58.675
11
158.425
21
-58.675
0
LINE
8
0
6
CONTINUOUS
10
158.425
20
-73.675
11
164.1625
21
-73.675
0
LINE
8
0
6
CONTINUOUS
10
164.1625
20
-73.675
11
165.425
21
-73.675
0
LINE
8
0
6
CONTINUOUS
10
158.425
20
-58.675
11
158.425
21
-59.675
0
LINE
8
0
6
CONTINUOUS
10
165.425
20
-59.675
11
165.425
21
-58.675
0
LINE
8
0
6
CONTINUOUS
10
32.075
20
-58.675
11
25.075
21
-58.675
0
LINE
8
0
6
CONTINUOUS
10
25.075
20
-73.675
11
26.3375
21
-73.675
0
LINE
8
0
6
CONTINUOUS
10
26.3375
20
-73.675
11
32.075
21
-73.675
0
LINE
8
0
6
CONTINUOUS
10
25.075
20
-58.675
11
25.075
21
-59.675
0
LINE
8
0
6
CONTINUOUS
10
32.075
20
-59.675
11
32.075
21
-58.675
0
LINE
8
0
6
CONTINUOUS
10
32.075
20
-73.675
11
34.6
21
-73.675
0
LINE
8
0
6
CONTINUOUS
10
34.6
20
-73.675
11
35.575
21
-73.675
0
LINE
8
0
6
CONTINUOUS
10
35.575
20
-73.675
11
40.3375
21
-73.675
0
LINE
8
0
6
CONTINUOUS
10
34.6
20
-59.675
11
32.075
21
-59.675
0
LINE
8
0
6
CONTINUOUS
10
21.575
20
-73.675
11
25.075
21
-73.675
0
LINE
8
0
6
CONTINUOUS
10
25.075
20
-59.675
11
21.575
21
-59.675
0
LINE
8
0
6
CONTINUOUS
10
21.575
20
-59.675
11
21.575
21
-73.675
0
LINE
8
0
6
CONTINUOUS
10
155.9
20
-58.675
11
148.9
21
-58.675
0
LINE
8
0
6
CONTINUOUS
10
148.9
20
-73.675
11
150.1625
21
-73.675
0
LINE
8
0
6
CONTINUOUS
10
150.1625
20
-73.675
11
154.925
21
-73.675
0
LINE
8
0
6
CONTINUOUS
10
154.925
20
-73.675
11
155.9
21
-73.675
0
LINE
8
0
6
CONTINUOUS
10
148.9
20
-58.675
11
148.9
21
-73.675
0
LINE
8
0
6
CONTINUOUS
10
155.9
20
-59.675
11
155.9
21
-58.675
0
LINE
8
0
6
CONTINUOUS
10
41.6
20
-58.675
11
34.6
21
-58.675
0
LINE
8
0
6
CONTINUOUS
10
40.3375
20
-73.675
11
41.6
21
-73.675
0
LINE
8
0
6
CONTINUOUS
10
34.6
20
-58.675
11
34.6
21
-59.675
0
LINE
8
0
6
CONTINUOUS
10
41.6
20
-73.675
11
41.6
21
-58.675
0
LINE
8
0
6
CONTINUOUS
10
59.675
20
-73.675
11
60.61825
21
-73.675
0
LINE
8
0
6
CONTINUOUS
10
60.61825
20
-73.675
11
60.65
21
-73.675
0
LINE
8
0
6
CONTINUOUS
10
60.65
20
-73.675
11
62.05625
21
-73.675
0
LINE
8
0
6
CONTINUOUS
10
62.05625
20
-73.675
11
65.38075
21
-73.675
0
LINE
8
0
6
CONTINUOUS
10
66.81875
20
-73.675
11
71.58125
21
-73.675
0
LINE
8
0
6
CONTINUOUS
10
71.58125
20
-73.675
11
72.7
21
-73.675
0
LINE
8
0
6
CONTINUOUS
10
72.7
20
-73.675
11
73.675
21
-73.675
0
LINE
8
0
6
CONTINUOUS
10
65.38075
20
-73.675
11
66.81875
21
-73.675
0
LINE
8
0
6
CONTINUOUS
10
72.7
20
-59.675
11
71.58125
21
-59.675
0
LINE
8
0
6
CONTINUOUS
10
71.58125
20
-59.675
11
66.81875
21
-59.675
0
LINE
8
0
6
CONTINUOUS
10
66.81875
20
-59.675
11
65.38075
21
-59.675
0
LINE
8
0
6
CONTINUOUS
10
89.225
20
-58.675
11
84.49425
21
-58.675
0
LINE
8
0
6
CONTINUOUS
10
84.49425
20
-58.675
11
82.25675
21
-58.675
0
LINE
8
0
6
CONTINUOUS
10
82.25675
20
-58.675
11
82.225
21
-58.675
0
LINE
8
0
6
CONTINUOUS
10
82.225
20
-73.675
11
82.25675
21
-73.675
0
LINE
8
0
6
CONTINUOUS
10
82.25675
20
-73.675
11
84.49425
21
-73.675
0
LINE
8
0
6
CONTINUOUS
10
84.49425
20
-73.675
11
85.58125
21
-73.675
0
LINE
8
0
6
CONTINUOUS
10
85.58125
20
-73.675
11
88.25
21
-73.675
0
LINE
8
0
6
CONTINUOUS
10
51.125
20
-58.675
11
44.125
21
-58.675
0
LINE
8
0
6
CONTINUOUS
10
44.125
20
-73.675
11
51.125
21
-73.675
0
LINE
8
0
6
CONTINUOUS
10
44.125
20
-58.675
11
44.125
21
-59.675
0
LINE
8
0
6
CONTINUOUS
10
51.125
20
-59.675
11
51.125
21
-58.675
0
LINE
8
0
6
CONTINUOUS
10
43.00625
20
-73.675
11
44.125
21
-73.675
0
LINE
8
0
6
CONTINUOUS
10
51.125
20
-73.675
11
53.61825
21
-73.675
0
LINE
8
0
6
CONTINUOUS
10
53.61825
20
-73.675
11
53.65
21
-73.675
0
LINE
8
0
6
CONTINUOUS
10
53.65
20
-73.675
11
57.00625
21
-73.675
0
LINE
8
0
6
CONTINUOUS
10
53.61825
20
-59.675
11
51.125
21
-59.675
0
LINE
8
0
6
CONTINUOUS
10
44.125
20
-59.675
11
43.00625
21
-59.675
0
LINE
8
0
6
CONTINUOUS
10
43.00625
20
-59.675
11
43.00625
21
-73.675
0
LINE
8
0
6
CONTINUOUS
10
60.65
20
-58.675
11
60.61825
21
-58.675
0
LINE
8
0
6
CONTINUOUS
10
60.61825
20
-58.675
11
58.38075
21
-58.675
0
LINE
8
0
6
CONTINUOUS
10
58.38075
20
-58.675
11
53.65
21
-58.675
0
LINE
8
0
6
CONTINUOUS
10
57.00625
20
-73.675
11
58.38075
21
-73.675
0
LINE
8
0
6
CONTINUOUS
10
58.38075
20
-73.675
11
59.675
21
-73.675
0
LINE
8
0
6
CONTINUOUS
10
73.675
20
-73.675
11
76.05625
21
-73.675
0
LINE
8
0
6
CONTINUOUS
10
76.05625
20
-73.675
11
77.49425
21
-73.675
0
LINE
8
0
6
CONTINUOUS
10
77.49425
20
-73.675
11
79.7
21
-73.675
0
LINE
8
0
6
CONTINUOUS
10
79.7
20
-73.675
11
80.81875
21
-73.675
0
LINE
8
0
6
CONTINUOUS
10
89.25675
20
-58.675
11
89.225
21
-58.675
0
LINE
8
0
6
CONTINUOUS
10
89.25675
20
-59.675
11
89.25675
21
-58.675
0
LINE
8
0
6
CONTINUOUS
10
65.38075
20
-58.675
11
60.65
21
-58.675
0
LINE
8
0
6
CONTINUOUS
10
65.38075
20
-59.675
11
65.38075
21
-58.675
0
LINE
8
0
6
CONTINUOUS
10
117.8
20
-58.675
11
113.00575
21
-58.675
0
LINE
8
0
6
CONTINUOUS
10
113.00575
20
-58.675
11
110.8
21
-58.675
0
LINE
8
0
6
CONTINUOUS
10
110.8
20
-73.675
11
113.00575
21
-73.675
0
LINE
8
0
6
CONTINUOUS
10
114.44375
20
-73.675
11
116.825
21
-73.675
0
LINE
8
0
6
CONTINUOUS
10
113.00575
20
-73.675
11
114.44375
21
-73.675
0
LINE
8
0
6
CONTINUOUS
10
116.825
20
-73.675
11
117.8
21
-73.675
0
LINE
8
0
6
CONTINUOUS
10
117.8
20
-59.675
11
117.8
21
-58.675
0
LINE
8
0
6
CONTINUOUS
10
79.7
20
-58.675
11
77.49425
21
-58.675
0
LINE
8
0
6
CONTINUOUS
10
77.49425
20
-58.675
11
72.7
21
-58.675
0
LINE
8
0
6
CONTINUOUS
10
72.7
20
-58.675
11
72.7
21
-59.675
0
LINE
8
0
6
CONTINUOUS
10
82.225
20
-58.675
11
79.7
21
-58.675
0
LINE
8
0
6
CONTINUOUS
10
80.81875
20
-73.675
11
82.225
21
-73.675
0
LINE
8
0
6
CONTINUOUS
10
53.65
20
-58.675
11
53.61825
21
-58.675
0
LINE
8
0
6
CONTINUOUS
10
53.61825
20
-58.675
11
53.61825
21
-59.675
0
LINE
8
0
6
CONTINUOUS
10
109.68125
20
-73.675
11
110.8
21
-73.675
0
LINE
8
0
6
CONTINUOUS
10
117.8
20
-73.675
11
118.91875
21
-73.675
0
LINE
8
0
6
CONTINUOUS
10
118.91875
20
-73.675
11
123.68125
21
-73.675
0
LINE
8
0
6
CONTINUOUS
10
123.68125
20
-59.675
11
118.91875
21
-59.675
0
LINE
8
0
6
CONTINUOUS
10
118.91875
20
-59.675
11
117.8
21
-59.675
0
LINE
8
0
6
CONTINUOUS
10
132.11925
20
-58.675
11
129.88175
21
-58.675
0
LINE
8
0
6
CONTINUOUS
10
129.88175
20
-58.675
11
125.11925
21
-58.675
0
LINE
8
0
6
CONTINUOUS
10
125.11925
20
-73.675
11
128.44375
21
-73.675
0
LINE
8
0
6
CONTINUOUS
10
128.44375
20
-73.675
11
129.88175
21
-73.675
0
LINE
8
0
6
CONTINUOUS
10
129.88175
20
-73.675
11
130.825
21
-73.675
0
LINE
8
0
6
CONTINUOUS
10
130.825
20
-73.675
11
132.11925
21
-73.675
0
LINE
8
0
6
CONTINUOUS
10
125.11925
20
-58.675
11
125.11925
21
-59.675
0
LINE
8
0
6
CONTINUOUS
10
108.24325
20
-58.675
11
106.00575
21
-58.675
0
LINE
8
0
6
CONTINUOUS
10
106.00575
20
-58.675
11
101.275
21
-58.675
0
LINE
8
0
6
CONTINUOUS
10
101.275
20
-58.675
11
101.24325
21
-58.675
0
LINE
8
0
6
CONTINUOUS
10
102.25
20
-73.675
11
104.91875
21
-73.675
0
LINE
8
0
6
CONTINUOUS
10
104.91875
20
-73.675
11
106.00575
21
-73.675
0
LINE
8
0
6
CONTINUOUS
10
106.00575
20
-73.675
11
108.24325
21
-73.675
0
LINE
8
0
6
CONTINUOUS
10
101.24325
20
-58.675
11
101.24325
21
-59.675
0
LINE
8
0
6
CONTINUOUS
10
108.24325
20
-73.675
11
108.275
21
-73.675
0
LINE
8
0
6
CONTINUOUS
10
108.275
20
-73.675
11
109.68125
21
-73.675
0
LINE
8
0
6
CONTINUOUS
10
123.68125
20
-73.675
11
125.11925
21
-73.675
0
LINE
8
0
6
CONTINUOUS
10
125.11925
20
-59.675
11
123.68125
21
-59.675
0
LINE
8
0
6
CONTINUOUS
10
146.375
20
-58.675
11
139.375
21
-58.675
0
LINE
8
0
6
CONTINUOUS
10
139.375
20
-73.675
11
146.375
21
-73.675
0
LINE
8
0
6
CONTINUOUS
10
139.375
20
-58.675
11
139.375
21
-59.675
0
LINE
8
0
6
CONTINUOUS
10
146.375
20
-59.675
11
146.375
21
-58.675
0
LINE
8
0
6
CONTINUOUS
10
108.275
20
-58.675
11
108.24325
21
-58.675
0
LINE
8
0
6
CONTINUOUS
10
136.88175
20
-58.675
11
132.11925
21
-58.675
0
LINE
8
0
6
CONTINUOUS
10
132.11925
20
-73.675
11
133.49375
21
-73.675
0
LINE
8
0
6
CONTINUOUS
10
133.49375
20
-73.675
11
136.88175
21
-73.675
0
LINE
8
0
6
CONTINUOUS
10
136.88175
20
-59.675
11
136.88175
21
-58.675
0
LINE
8
0
6
CONTINUOUS
10
110.8
20
-58.675
11
108.275
21
-58.675
0
LINE
8
0
6
CONTINUOUS
10
146.375
20
-73.675
11
147.49375
21
-73.675
0
LINE
8
0
6
CONTINUOUS
10
136.88175
20
-73.675
11
139.375
21
-73.675
0
LINE
8
0
6
CONTINUOUS
10
147.49375
20
-59.675
11
146.375
21
-59.675
0
LINE
8
0
6
CONTINUOUS
10
139.375
20
-59.675
11
136.88175
21
-59.675
0
LINE
8
0
6
CONTINUOUS
10
147.49375
20
-73.675
11
147.49375
21
-59.675
0
LINE
8
0
6
CONTINUOUS
10
155.9
20
-73.675
11
158.425
21
-73.675
0
LINE
8
0
6
CONTINUOUS
10
158.425
20
-59.675
11
155.9
21
-59.675
0
LINE
8
0
6
CONTINUOUS
10
165.425
20
-73.675
11
168.925
21
-73.675
0
LINE
8
0
6
CONTINUOUS
10
168.925
20
-59.675
11
165.425
21
-59.675
0
LINE
8
0
6
CONTINUOUS
10
168.925
20
-73.675
11
168.925
21
-59.675
0
LINE
8
0
6
CONTINUOUS
10
169.2125
20
-73.675
11
173.975
21
-73.675
0
LINE
8
0
6
CONTINUOUS
10
173.975
20
-73.675
11
183.2125
21
-73.675
0
LINE
8
0
6
CONTINUOUS
10
183.2125
20
-59.675
11
173.975
21
-59.675
0
LINE
8
0
6
CONTINUOUS
10
173.975
20
-59.675
11
169.2125
21
-59.675
0
LINE
8
0
6
CONTINUOUS
10
169.2125
20
-59.675
11
169.2125
21
-73.675
0
LINE
8
0
6
CONTINUOUS
10
183.2125
20
-73.675
11
187.975
21
-73.675
0
LINE
8
0
6
CONTINUOUS
10
187.975
20
-59.675
11
183.2125
21
-59.675
0
LINE
8
0
6
CONTINUOUS
10
187.975
20
-73.675
11
187.975
21
-59.675
0
LINE
8
0
6
CONTINUOUS
10
7.2875
20
-92.725
11
16.525
21
-92.725
0
LINE
8
0
6
CONTINUOUS
10
16.525
20
-92.725
11
21.2875
21
-92.725
0
LINE
8
0
6
CONTINUOUS
10
21.2875
20
-78.725
11
16.525
21
-78.725
0
LINE
8
0
6
CONTINUOUS
10
16.525
20
-78.725
11
7.2875
21
-78.725
0
LINE
8
0
6
CONTINUOUS
10
21.2875
20
-92.725
11
21.2875
21
-78.725
0
LINE
8
0
6
CONTINUOUS
10
2.525
20
-92.725
11
7.2875
21
-92.725
0
LINE
8
0
6
CONTINUOUS
10
7.2875
20
-78.725
11
2.525
21
-78.725
0
LINE
8
0
6
CONTINUOUS
10
2.525
20
-78.725
11
2.525
21
-92.725
0
LINE
8
0
6
CONTINUOUS
10
88.25
20
-92.725
11
89.225
21
-92.725
0
LINE
8
0
6
CONTINUOUS
10
89.225
20
-92.725
11
89.25675
21
-92.725
0
LINE
8
0
6
CONTINUOUS
10
89.25675
20
-92.725
11
101.24325
21
-92.725
0
LINE
8
0
6
CONTINUOUS
10
101.24325
20
-92.725
11
101.275
21
-92.725
0
LINE
8
0
6
CONTINUOUS
10
101.275
20
-92.725
11
102.25
21
-92.725
0
LINE
8
0
6
CONTINUOUS
10
101.24325
20
-78.725
11
89.25675
21
-78.725
0
LINE
8
0
6
CONTINUOUS
10
165.425
20
-77.725
11
158.425
21
-77.725
0
LINE
8
0
6
CONTINUOUS
10
158.425
20
-92.725
11
164.1625
21
-92.725
0
LINE
8
0
6
CONTINUOUS
10
164.1625
20
-92.725
11
165.425
21
-92.725
0
LINE
8
0
6
CONTINUOUS
10
158.425
20
-77.725
11
158.425
21
-78.725
0
LINE
8
0
6
CONTINUOUS
10
165.425
20
-78.725
11
165.425
21
-77.725
0
LINE
8
0
6
CONTINUOUS
10
32.075
20
-77.725
11
25.075
21
-77.725
0
LINE
8
0
6
CONTINUOUS
10
25.075
20
-92.725
11
26.3375
21
-92.725
0
LINE
8
0
6
CONTINUOUS
10
26.3375
20
-92.725
11
32.075
21
-92.725
0
LINE
8
0
6
CONTINUOUS
10
25.075
20
-77.725
11
25.075
21
-78.725
0
LINE
8
0
6
CONTINUOUS
10
32.075
20
-78.725
11
32.075
21
-77.725
0
LINE
8
0
6
CONTINUOUS
10
32.075
20
-92.725
11
34.6
21
-92.725
0
LINE
8
0
6
CONTINUOUS
10
34.6
20
-92.725
11
35.575
21
-92.725
0
LINE
8
0
6
CONTINUOUS
10
35.575
20
-92.725
11
40.3375
21
-92.725
0
LINE
8
0
6
CONTINUOUS
10
34.6
20
-78.725
11
32.075
21
-78.725
0
LINE
8
0
6
CONTINUOUS
10
21.575
20
-92.725
11
25.075
21
-92.725
0
LINE
8
0
6
CONTINUOUS
10
25.075
20
-78.725
11
21.575
21
-78.725
0
LINE
8
0
6
CONTINUOUS
10
21.575
20
-78.725
11
21.575
21
-92.725
0
LINE
8
0
6
CONTINUOUS
10
155.9
20
-77.725
11
148.9
21
-77.725
0
LINE
8
0
6
CONTINUOUS
10
148.9
20
-92.725
11
150.1625
21
-92.725
0
LINE
8
0
6
CONTINUOUS
10
150.1625
20
-92.725
11
154.925
21
-92.725
0
LINE
8
0
6
CONTINUOUS
10
154.925
20
-92.725
11
155.9
21
-92.725
0
LINE
8
0
6
CONTINUOUS
10
148.9
20
-77.725
11
148.9
21
-92.725
0
LINE
8
0
6
CONTINUOUS
10
155.9
20
-78.725
11
155.9
21
-77.725
0
LINE
8
0
6
CONTINUOUS
10
41.6
20
-77.725
11
34.6
21
-77.725
0
LINE
8
0
6
CONTINUOUS
10
40.3375
20
-92.725
11
41.6
21
-92.725
0
LINE
8
0
6
CONTINUOUS
10
34.6
20
-77.725
11
34.6
21
-78.725
0
LINE
8
0
6
CONTINUOUS
10
41.6
20
-92.725
11
41.6
21
-77.725
0
LINE
8
0
6
CONTINUOUS
10
59.675
20
-92.725
11
60.61825
21
-92.725
0
LINE
8
0
6
CONTINUOUS
10
60.61825
20
-92.725
11
60.65
21
-92.725
0
LINE
8
0
6
CONTINUOUS
10
60.65
20
-92.725
11
62.05625
21
-92.725
0
LINE
8
0
6
CONTINUOUS
10
62.05625
20
-92.725
11
65.38075
21
-92.725
0
LINE
8
0
6
CONTINUOUS
10
66.81875
20
-92.725
11
71.58125
21
-92.725
0
LINE
8
0
6
CONTINUOUS
10
71.58125
20
-92.725
11
72.7
21
-92.725
0
LINE
8
0
6
CONTINUOUS
10
72.7
20
-92.725
11
73.675
21
-92.725
0
LINE
8
0
6
CONTINUOUS
10
65.38075
20
-92.725
11
66.81875
21
-92.725
0
LINE
8
0
6
CONTINUOUS
10
72.7
20
-78.725
11
71.58125
21
-78.725
0
LINE
8
0
6
CONTINUOUS
10
71.58125
20
-78.725
11
66.81875
21
-78.725
0
LINE
8
0
6
CONTINUOUS
10
66.81875
20
-78.725
11
65.38075
21
-78.725
0
LINE
8
0
6
CONTINUOUS
10
89.225
20
-77.725
11
84.49425
21
-77.725
0
LINE
8
0
6
CONTINUOUS
10
84.49425
20
-77.725
11
82.25675
21
-77.725
0
LINE
8
0
6
CONTINUOUS
10
82.25675
20
-77.725
11
82.225
21
-77.725
0
LINE
8
0
6
CONTINUOUS
10
82.225
20
-92.725
11
82.25675
21
-92.725
0
LINE
8
0
6
CONTINUOUS
10
82.25675
20
-92.725
11
84.49425
21
-92.725
0
LINE
8
0
6
CONTINUOUS
10
84.49425
20
-92.725
11
85.58125
21
-92.725
0
LINE
8
0
6
CONTINUOUS
10
85.58125
20
-92.725
11
88.25
21
-92.725
0
LINE
8
0
6
CONTINUOUS
10
51.125
20
-77.725
11
44.125
21
-77.725
0
LINE
8
0
6
CONTINUOUS
10
44.125
20
-92.725
11
51.125
21
-92.725
0
LINE
8
0
6
CONTINUOUS
10
44.125
20
-77.725
11
44.125
21
-78.725
0
LINE
8
0
6
CONTINUOUS
10
51.125
20
-78.725
11
51.125
21
-77.725
0
LINE
8
0
6
CONTINUOUS
10
43.00625
20
-92.725
11
44.125
21
-92.725
0
LINE
8
0
6
CONTINUOUS
10
51.125
20
-92.725
11
53.61825
21
-92.725
0
LINE
8
0
6
CONTINUOUS
10
53.61825
20
-92.725
11
53.65
21
-92.725
0
LINE
8
0
6
CONTINUOUS
10
53.65
20
-92.725
11
57.00625
21
-92.725
0
LINE
8
0
6
CONTINUOUS
10
53.61825
20
-78.725
11
51.125
21
-78.725
0
LINE
8
0
6
CONTINUOUS
10
44.125
20
-78.725
11
43.00625
21
-78.725
0
LINE
8
0
6
CONTINUOUS
10
43.00625
20
-78.725
11
43.00625
21
-92.725
0
LINE
8
0
6
CONTINUOUS
10
60.65
20
-77.725
11
60.61825
21
-77.725
0
LINE
8
0
6
CONTINUOUS
10
60.61825
20
-77.725
11
58.38075
21
-77.725
0
LINE
8
0
6
CONTINUOUS
10
58.38075
20
-77.725
11
53.65
21
-77.725
0
LINE
8
0
6
CONTINUOUS
10
57.00625
20
-92.725
11
58.38075
21
-92.725
0
LINE
8
0
6
CONTINUOUS
10
58.38075
20
-92.725
11
59.675
21
-92.725
0
LINE
8
0
6
CONTINUOUS
10
73.675
20
-92.725
11
76.05625
21
-92.725
0
LINE
8
0
6
CONTINUOUS
10
76.05625
20
-92.725
11
77.49425
21
-92.725
0
LINE
8
0
6
CONTINUOUS
10
77.49425
20
-92.725
11
79.7
21
-92.725
0
LINE
8
0
6
CONTINUOUS
10
79.7
20
-92.725
11
80.81875
21
-92.725
0
LINE
8
0
6
CONTINUOUS
10
89.25675
20
-77.725
11
89.225
21
-77.725
0
LINE
8
0
6
CONTINUOUS
10
89.25675
20
-78.725
11
89.25675
21
-77.725
0
LINE
8
0
6
CONTINUOUS
10
65.38075
20
-77.725
11
60.65
21
-77.725
0
LINE
8
0
6
CONTINUOUS
10
65.38075
20
-78.725
11
65.38075
21
-77.725
0
LINE
8
0
6
CONTINUOUS
10
117.8
20
-77.725
11
113.00575
21
-77.725
0
LINE
8
0
6
CONTINUOUS
10
113.00575
20
-77.725
11
110.8
21
-77.725
0
LINE
8
0
6
CONTINUOUS
10
110.8
20
-92.725
11
113.00575
21
-92.725
0
LINE
8
0
6
CONTINUOUS
10
114.44375
20
-92.725
11
116.825
21
-92.725
0
LINE
8
0
6
CONTINUOUS
10
113.00575
20
-92.725
11
114.44375
21
-92.725
0
LINE
8
0
6
CONTINUOUS
10
116.825
20
-92.725
11
117.8
21
-92.725
0
LINE
8
0
6
CONTINUOUS
10
117.8
20
-78.725
11
117.8
21
-77.725
0
LINE
8
0
6
CONTINUOUS
10
79.7
20
-77.725
11
77.49425
21
-77.725
0
LINE
8
0
6
CONTINUOUS
10
77.49425
20
-77.725
11
72.7
21
-77.725
0
LINE
8
0
6
CONTINUOUS
10
72.7
20
-77.725
11
72.7
21
-78.725
0
LINE
8
0
6
CONTINUOUS
10
82.225
20
-77.725
11
79.7
21
-77.725
0
LINE
8
0
6
CONTINUOUS
10
80.81875
20
-92.725
11
82.225
21
-92.725
0
LINE
8
0
6
CONTINUOUS
10
53.65
20
-77.725
11
53.61825
21
-77.725
0
LINE
8
0
6
CONTINUOUS
10
53.61825
20
-77.725
11
53.61825
21
-78.725
0
LINE
8
0
6
CONTINUOUS
10
109.68125
20
-92.725
11
110.8
21
-92.725
0
LINE
8
0
6
CONTINUOUS
10
117.8
20
-92.725
11
118.91875
21
-92.725
0
LINE
8
0
6
CONTINUOUS
10
118.91875
20
-92.725
11
123.68125
21
-92.725
0
LINE
8
0
6
CONTINUOUS
10
123.68125
20
-78.725
11
118.91875
21
-78.725
0
LINE
8
0
6
CONTINUOUS
10
118.91875
20
-78.725
11
117.8
21
-78.725
0
LINE
8
0
6
CONTINUOUS
10
132.11925
20
-77.725
11
129.88175
21
-77.725
0
LINE
8
0
6
CONTINUOUS
10
129.88175
20
-77.725
11
125.11925
21
-77.725
0
LINE
8
0
6
CONTINUOUS
10
125.11925
20
-92.725
11
128.44375
21
-92.725
0
LINE
8
0
6
CONTINUOUS
10
128.44375
20
-92.725
11
129.88175
21
-92.725
0
LINE
8
0
6
CONTINUOUS
10
129.88175
20
-92.725
11
130.825
21
-92.725
0
LINE
8
0
6
CONTINUOUS
10
130.825
20
-92.725
11
132.11925
21
-92.725
0
LINE
8
0
6
CONTINUOUS
10
125.11925
20
-77.725
11
125.11925
21
-78.725
0
LINE
8
0
6
CONTINUOUS
10
108.24325
20
-77.725
11
106.00575
21
-77.725
0
LINE
8
0
6
CONTINUOUS
10
106.00575
20
-77.725
11
101.275
21
-77.725
0
LINE
8
0
6
CONTINUOUS
10
101.275
20
-77.725
11
101.24325
21
-77.725
0
LINE
8
0
6
CONTINUOUS
10
102.25
20
-92.725
11
104.91875
21
-92.725
0
LINE
8
0
6
CONTINUOUS
10
104.91875
20
-92.725
11
106.00575
21
-92.725
0
LINE
8
0
6
CONTINUOUS
10
106.00575
20
-92.725
11
108.24325
21
-92.725
0
LINE
8
0
6
CONTINUOUS
10
101.24325
20
-77.725
11
101.24325
21
-78.725
0
LINE
8
0
6
CONTINUOUS
10
108.24325
20
-92.725
11
108.275
21
-92.725
0
LINE
8
0
6
CONTINUOUS
10
108.275
20
-92.725
11
109.68125
21
-92.725
0
LINE
8
0
6
CONTINUOUS
10
123.68125
20
-92.725
11
125.11925
21
-92.725
0
LINE
8
0
6
CONTINUOUS
10
125.11925
20
-78.725
11
123.68125
21
-78.725
0
LINE
8
0
6
CONTINUOUS
10
146.375
20
-77.725
11
139.375
21
-77.725
0
LINE
8
0
6
CONTINUOUS
10
139.375
20
-92.725
11
146.375
21
-92.725
0
LINE
8
0
6
CONTINUOUS
10
139.375
20
-77.725
11
139.375
21
-78.725
0
LINE
8
0
6
CONTINUOUS
10
146.375
20
-78.725
11
146.375
21
-77.725
0
LINE
8
0
6
CONTINUOUS
10
108.275
20
-77.725
11
108.24325
21
-77.725
0
LINE
8
0
6
CONTINUOUS
10
136.88175
20
-77.725
11
132.11925
21
-77.725
0
LINE
8
0
6
CONTINUOUS
10
132.11925
20
-92.725
11
133.49375
21
-92.725
0
LINE
8
0
6
CONTINUOUS
10
133.49375
20
-92.725
11
136.88175
21
-92.725
0
LINE
8
0
6
CONTINUOUS
10
136.88175
20
-78.725
11
136.88175
21
-77.725
0
LINE
8
0
6
CONTINUOUS
10
110.8
20
-77.725
11
108.275
21
-77.725
0
LINE
8
0
6
CONTINUOUS
10
146.375
20
-92.725
11
147.49375
21
-92.725
0
LINE
8
0
6
CONTINUOUS
10
136.88175
20
-92.725
11
139.375
21
-92.725
0
LINE
8
0
6
CONTINUOUS
10
147.49375
20
-78.725
11
146.375
21
-78.725
0
LINE
8
0
6
CONTINUOUS
10
139.375
20
-78.725
11
136.88175
21
-78.725
0
LINE
8
0
6
CONTINUOUS
10
147.49375
20
-92.725
11
147.49375
21
-78.725
0
LINE
8
0
6
CONTINUOUS
10
155.9
20
-92.725
11
158.425
21
-92.725
0
LINE
8
0
6
CONTINUOUS
10
158.425
20
-78.725
11
155.9
21
-78.725
0
LINE
8
0
6
CONTINUOUS
10
165.425
20
-92.725
11
168.925
21
-92.725
0
LINE
8
0
6
CONTINUOUS
10
168.925
20
-78.725
11
165.425
21
-78.725
0
LINE
8
0
6
CONTINUOUS
10
168.925
20
-92.725
11
168.925
21
-78.725
0
LINE
8
0
6
CONTINUOUS
10
169.2125
20
-92.725
11
173.975
21
-92.725
0
LINE
8
0
6
CONTINUOUS
10
173.975
20
-92.725
11
183.2125
21
-92.725
0
LINE
8
0
6
CONTINUOUS
10
183.2125
20
-78.725
11
173.975
21
-78.725
0
LINE
8
0
6
CONTINUOUS
10
173.975
20
-78.725
11
169.2125
21
-78.725
0
LINE
8
0
6
CONTINUOUS
10
169.2125
20
-78.725
11
169.2125
21
-92.725
0
LINE
8
0
6
CONTINUOUS
10
183.2125
20
-92.725
11
187.975
21
-92.725
0
LINE
8
0
6
CONTINUOUS
10
187.975
20
-78.725
11
183.2125
21
-78.725
0
LINE
8
0
6
CONTINUOUS
10
187.975
20
-92.725
11
187.975
21
-78.725
0
ENDSEC
0
EOF