<svg xmlns="http://www.w3.org/2000/svg" xmlns:xlink="http://www.w3.org/1999/xlink" version="1.1" x="0px" y="0px" viewBox="0 0 100 125" enable-background="new 0 0 100 100" xml:space="preserve"><path d="M78.677,95c-1.7-0.988-3.481-1.832-5.334-2.518L62.19,88.35c-3.902-1.448-6.492-5.172-6.492-9.33v-5.125  c0-1.389,1.125-2.513,2.518-2.513H69.62c1.845,0,3.77-1.252,3.77-4.132c0-3.928-0.464-4.465,1.231-6.113  c0.835-0.818,0.856-1.977-0.43-2.565c2.109-1.086,1.7-2.309,1.074-3.14c-0.613-0.814-1.18-2.16-0.396-3.412  c1.512-0.648,2.846-1.38,3.404-2.22c0.089-0.136,0.63-0.882-0.03-1.806c-0.801-1.116-3.383-3.016-6.181-8.64  c-0.571-1.15-0.371-2.207-0.017-3.25c2.965,4.558,6.569,8.665,10.684,12.193C98.699,61.997,94.542,85.896,78.677,95z M56.207,38.16  c2.241,1.08,4.068,1.689,5.515,2.021c-0.011,0.063-0.029,0.123-0.035,0.188c-0.099,1.141,0.722,2.144,1.834,2.241  c1.112,0.097,2.094-0.749,2.194-1.89c0.008-0.09,0-0.177-0.003-0.265c0.239-0.043,0.357-0.086,0.357-0.086s1.427-0.327,1.597-2.209  C67.386,38.191,56.207,38.16,56.207,38.16z M43.322,5C23.444,5,7.319,21.057,7.204,40.909C6.31,60.821,20.078,80.422,30.137,87.54  c-2.139-14.297,0.616-26.773,5.794-35.355c-0.307-0.694-0.533-1.47-0.656-2.296c-0.541-3.561,1.014-6.744,3.463-7.119  c1.052-0.158,2.096,0.226,2.986,0.993c3.429-4.085,7.464-7.651,11.963-10.552H78.57C74.958,17.069,60.554,5,43.322,5z   M40.849,53.711c-0.893,0-1.618,0.724-1.618,1.618s0.724,1.618,1.618,1.618s1.618-0.724,1.618-1.618S41.742,53.711,40.849,53.711z   M40.847,57.592c-1.086,0-2.087,0.349-2.901,0.941v8.043c0.814,0.592,1.815,0.941,2.901,0.941c1.086,0,2.088-0.349,2.905-0.941  v-8.043C42.934,57.941,41.933,57.592,40.847,57.592z"/><text x="0" y="115" fill="#000000" font-size="5px" font-weight="bold" font-family="'Helvetica Neue', Helvetica, Arial-Unicode, Arial, Sans-serif">Created by Laymik</text><text x="0" y="120" fill="#000000" font-size="5px" font-weight="bold" font-family="'Helvetica Neue', Helvetica, Arial-Unicode, Arial, Sans-serif">from the Noun Project</text></svg>